<svg width="184" height="65" viewBox="0 0 184 65" fill="none" xmlns="http://www.w3.org/2000/svg">
<circle cx="32.5" cy="32.5" r="31.75" stroke="#A1A750" stroke-width="1.5"/>
<path fill-rule="evenodd" clip-rule="evenodd" d="M32.5 61C48.2401 61 61 48.2401 61 32.5C61 16.7599 48.2401 4 32.5 4C16.7599 4 4 16.7599 4 32.5C4 46.7051 14.3925 58.4829 27.989 60.645C27.9755 60.0284 27.9512 59.3052 27.9253 58.5328C27.8327 55.7807 27.7191 52.4043 28 51C27 49 24.5 45.5 22.5 43.5C19 45 12 44.5 10 36.5C14.5 35 19.8 35.6 23 42C24.6667 43.5 28.1 46.7 28.5 47.5C28.9 48.3 29.3333 47.8333 29.5 47.5L30 44.5C28.8333 42 26.7 35.7 27.5 30.5L27.3511 30.2829C25.1459 27.0711 21.2131 21.343 30.5 14.5C33.5 18 35.8 26.5 29 30.5C29.1667 34.1667 30 40 30.5 41.5H31C31.5 40 32.8 36.7 34 35.5C34.0765 35.4235 34.0594 35.0546 34.0328 34.481C33.8855 31.3041 33.4472 21.8471 47 21C48 26.5 45.4 34.8 35 36L32.5 43.5V44.5C33 43.8333 35 42.3 39 41.5C41.3333 38.8333 47.5 34.9 53.5 40.5C52 43.3333 47.1 47.8 39.5 43C37.6667 43.5 33.6 45 32 47L31.037 60.9631C31.5216 60.9876 32.0093 61 32.5 61ZM36 22.5C34.6667 19.1667 33.5 11 42.5 9C45 14.5 43.2 21.3 36 22.5ZM24.5 37C20.1667 37.1667 11.9 34.1 13.5 20.5C18.5 21 27.7 25 24.5 37ZM43.5 36.5C43.6667 34.5 45.8924 28.5 52.5 31C51.5 34.5 49.5 37.5 43.5 36.5ZM33.5 47.5C35.8333 45.8333 41.4 44.2 45 51C42.3466 52.6667 36.3318 54.3 33.5 47.5Z" fill="#147278"/>
<path d="M173.796 39.978C166.689 39.978 161.411 34.4925 161.411 27.558V27.489C161.411 20.6235 166.586 15 174.003 15C178.523 15 181.317 16.518 183.525 18.726L180.144 22.6245C178.247 20.934 176.418 19.899 173.969 19.899C169.898 19.899 166.965 23.28 166.965 27.42V27.489C166.965 31.629 169.829 35.079 173.969 35.079C176.729 35.079 178.419 34.0095 180.317 32.25L183.698 35.6655C181.214 38.322 178.488 39.978 173.796 39.978Z" fill="#147278"/>
<path d="M132.043 39.5641V15.4141H141.462C149.052 15.4141 154.296 20.6236 154.296 27.4201V27.4891C154.296 34.2856 149.052 39.5641 141.462 39.5641H132.043ZM141.462 20.2096H137.356V34.7686H141.462C145.774 34.7686 148.741 31.8361 148.741 27.5581V27.4891C148.741 23.2111 145.774 20.2096 141.462 20.2096Z" fill="#147278"/>
<path d="M103.662 39.5641V15.4141H114.702C117.772 15.4141 120.118 16.2421 121.74 17.8636C123.12 19.2436 123.81 21.0721 123.81 23.3836V23.4526C123.81 27.3511 121.705 29.8006 118.635 30.9391L124.534 39.5641H118.324L113.149 31.8361H108.975V39.5641H103.662ZM108.975 27.1441H114.357C116.979 27.1441 118.428 25.7986 118.428 23.7286V23.6596C118.428 21.3481 116.875 20.2096 114.253 20.2096H108.975V27.1441Z" fill="#147278"/>
<path d="M74 39.5641V15.4141H79.313V24.9706H89.111V15.4141H94.424V39.5641H89.111V29.8696H79.313V39.5641H74Z" fill="#147278"/>
<path d="M181.07 51V49.344L179.456 46.8H180.536L181.538 48.486L182.558 46.8H183.608L181.994 49.326V51H181.07Z" fill="#147278"/>
<path d="M176.795 51V47.652H175.517V46.8H178.997V47.652H177.719V51H176.795Z" fill="#147278"/>
<path d="M173.664 51V46.8H174.588V51H173.664Z" fill="#147278"/>
<path d="M168.702 51V46.8H169.554L171.522 49.386V46.8H172.434V51H171.648L169.614 48.33V51H168.702Z" fill="#147278"/>
<path d="M165.738 51.066C164.61 51.066 163.92 50.442 163.92 49.2V46.8H164.844V49.176C164.844 49.866 165.18 50.214 165.75 50.214C166.32 50.214 166.656 49.878 166.656 49.206V46.8H167.58V49.17C167.58 50.442 166.866 51.066 165.738 51.066Z" fill="#147278"/>
<path d="M158.597 51V46.8H159.593L160.697 48.576L161.801 46.8H162.797V51H161.879V48.258L160.697 50.052H160.673L159.503 48.276V51H158.597Z" fill="#147278"/>
<path d="M153.208 51V46.8H154.204L155.308 48.576L156.412 46.8H157.408V51H156.49V48.258L155.308 50.052H155.284L154.114 48.276V51H153.208Z" fill="#147278"/>
<path d="M149.971 51.072C148.675 51.072 147.745 50.106 147.745 48.912V48.9C147.745 47.706 148.687 46.728 149.983 46.728C151.279 46.728 152.209 47.694 152.209 48.888V48.9C152.209 50.094 151.267 51.072 149.971 51.072ZM149.983 50.22C150.727 50.22 151.243 49.632 151.243 48.912V48.9C151.243 48.18 150.715 47.58 149.971 47.58C149.227 47.58 148.711 48.168 148.711 48.888V48.9C148.711 49.62 149.239 50.22 149.983 50.22Z" fill="#147278"/>
<path d="M145.406 51.072C144.17 51.072 143.252 50.118 143.252 48.912V48.9C143.252 47.706 144.152 46.728 145.442 46.728C146.228 46.728 146.714 46.992 147.098 47.376L146.51 48.054C146.18 47.76 145.862 47.58 145.436 47.58C144.728 47.58 144.218 48.168 144.218 48.888V48.9C144.218 49.62 144.716 50.22 145.436 50.22C145.916 50.22 146.21 50.034 146.54 49.728L147.128 50.322C146.696 50.784 146.222 51.072 145.406 51.072Z" fill="#147278"/>
<path d="M136.943 51V46.8H138.863C139.397 46.8 139.805 46.944 140.087 47.226C140.327 47.466 140.447 47.784 140.447 48.186V48.198C140.447 48.876 140.081 49.302 139.547 49.5L140.573 51H139.493L138.593 49.656H137.867V51H136.943ZM137.867 48.84H138.803C139.259 48.84 139.511 48.606 139.511 48.246V48.234C139.511 47.832 139.241 47.634 138.785 47.634H137.867V48.84Z" fill="#147278"/>
<path d="M132.744 51V46.8H135.912V47.622H133.662V48.474H135.642V49.296H133.662V50.178H135.942V51H132.744Z" fill="#147278"/>
<path d="M129.651 51V47.652H128.373V46.8H131.853V47.652H130.575V51H129.651Z" fill="#147278"/>
<path d="M125.581 51V47.652H124.303V46.8H127.783V47.652H126.505V51H125.581Z" fill="#147278"/>
<path d="M120.403 51V46.8H123.571V47.622H121.321V48.474H123.301V49.296H121.321V50.178H123.601V51H120.403Z" fill="#147278"/>
<path d="M115.893 51V46.8H117.843C118.329 46.8 118.695 46.926 118.941 47.172C119.133 47.364 119.229 47.604 119.229 47.886V47.898C119.229 48.366 118.977 48.648 118.677 48.804C119.163 48.99 119.463 49.278 119.463 49.836V49.848C119.463 50.616 118.839 51 117.891 51H115.893ZM118.311 48.054V48.042C118.311 47.76 118.095 47.61 117.705 47.61H116.793V48.498H117.645C118.053 48.498 118.311 48.366 118.311 48.054ZM118.545 49.734V49.722C118.545 49.44 118.341 49.266 117.861 49.266H116.793V50.19H117.891C118.299 50.19 118.545 50.046 118.545 49.734Z" fill="#147278"/>
<path d="M108.634 51L110.434 46.77H111.286L113.086 51H112.12L111.736 50.058H109.96L109.576 51H108.634ZM110.29 49.242H111.406L110.848 47.88L110.29 49.242Z" fill="#147278"/>
<path d="M104.152 51.072C102.844 51.072 101.944 50.16 101.944 48.912V48.9C101.944 47.706 102.874 46.728 104.146 46.728C104.896 46.728 105.364 46.932 105.796 47.304L105.214 48.006C104.896 47.736 104.596 47.58 104.116 47.58C103.444 47.58 102.91 48.174 102.91 48.888V48.9C102.91 49.668 103.438 50.232 104.182 50.232C104.524 50.232 104.818 50.148 105.052 49.98V49.38H104.122V48.582H105.946V50.406C105.514 50.772 104.92 51.072 104.152 51.072Z" fill="#147278"/>
<path d="M97.21 51V46.8H98.062L100.03 49.386V46.8H100.942V51H100.156L98.122 48.33V51H97.21Z" fill="#147278"/>
<path d="M95.0563 51V46.8H95.9803V51H95.0563Z" fill="#147278"/>
<path d="M90.1409 51V46.8H91.7789C93.0989 46.8 94.0109 47.706 94.0109 48.888V48.9C94.0109 50.082 93.0989 51 91.7789 51H90.1409ZM91.7789 47.634H91.0649V50.166H91.7789C92.5289 50.166 93.0449 49.656 93.0449 48.912V48.9C93.0449 48.156 92.5289 47.634 91.7789 47.634Z" fill="#147278"/>
<path d="M86.2461 51V46.8H87.1701V50.16H89.2641V51H86.2461Z" fill="#147278"/>
<path d="M84.0924 51V46.8H85.0164V51H84.0924Z" fill="#147278"/>
<path d="M81.0873 51.066C79.9593 51.066 79.2693 50.442 79.2693 49.2V46.8H80.1933V49.176C80.1933 49.866 80.5293 50.214 81.0993 50.214C81.6693 50.214 82.0053 49.878 82.0053 49.206V46.8H82.9293V49.17C82.9293 50.442 82.2153 51.066 81.0873 51.066Z" fill="#147278"/>
<path d="M74.8252 51V46.8H76.7752C77.2612 46.8 77.6272 46.926 77.8732 47.172C78.0652 47.364 78.1612 47.604 78.1612 47.886V47.898C78.1612 48.366 77.9092 48.648 77.6092 48.804C78.0952 48.99 78.3952 49.278 78.3952 49.836V49.848C78.3952 50.616 77.7712 51 76.8232 51H74.8252ZM77.2432 48.054V48.042C77.2432 47.76 77.0272 47.61 76.6372 47.61H75.7252V48.498H76.5772C76.9852 48.498 77.2432 48.366 77.2432 48.054ZM77.4772 49.734V49.722C77.4772 49.44 77.2732 49.266 76.7932 49.266H75.7252V50.19H76.8232C77.2312 50.19 77.4772 50.046 77.4772 49.734Z" fill="#147278"/>
<path d="M43.5 36.5C43.8334 33.8333 46 28.5 52.5 31C52 33.5 49.5 38.1 43.5 36.5Z" fill="#A1A750"/>
<path d="M33.5 47.5C34.5 50.3333 38.2 55 45 51C43.8334 48.1667 39.9 43.5 33.5 47.5Z" fill="#A1A750"/>
<path d="M24.5 37C20.1667 37.3333 11.9 34.5 13.5 20.5C18.5 21 27.7 25 24.5 37Z" fill="#A1A750"/>
<path d="M36 22.5C34.5 18.8333 33.7 11 42.5 9C44.1667 12.6667 45 21 36 22.5Z" fill="#A1A750"/>
</svg>
