<svg width="110" height="109" viewBox="0 0 110 109" fill="none" xmlns="http://www.w3.org/2000/svg">
<circle cx="54.5" cy="32.5" r="31.75" stroke="#A1A750" stroke-width="1.5"/>
<path fill-rule="evenodd" clip-rule="evenodd" d="M54.5 61C70.2401 61 83 48.2401 83 32.5C83 16.7599 70.2401 4 54.5 4C38.7599 4 26 16.7599 26 32.5C26 46.7051 36.3925 58.4829 49.989 60.645C49.9755 60.0284 49.9512 59.3052 49.9253 58.5328C49.8327 55.7807 49.7191 52.4043 50 51C49 49 46.5 45.5 44.5 43.5C41 45 34 44.5 32 36.5C36.5 35 41.8 35.6 45 42C46.6667 43.5 50.1 46.7 50.5 47.5C50.9 48.3 51.3333 47.8333 51.5 47.5L52 44.5C50.8333 42 48.7 35.7 49.5 30.5L49.3511 30.2829C47.1459 27.0711 43.2131 21.343 52.5 14.5C55.5 18 57.8 26.5 51 30.5C51.1667 34.1667 52 40 52.5 41.5H53C53.5 40 54.8 36.7 56 35.5C56.0765 35.4235 56.0594 35.0546 56.0328 34.481C55.8855 31.3041 55.4472 21.8471 69 21C70 26.5 67.4 34.8 57 36L54.5 43.5V44.5C55 43.8333 57 42.3 61 41.5C63.3333 38.8333 69.5 34.9 75.5 40.5C74 43.3333 69.1 47.8 61.5 43C59.6667 43.5 55.6 45 54 47L53.037 60.9631C53.5216 60.9876 54.0093 61 54.5 61ZM58 22.5C56.6667 19.1667 55.5 11 64.5 9C67 14.5 65.2 21.3 58 22.5ZM46.5 37C42.1667 37.1667 33.9 34.1 35.5 20.5C40.5 21 49.7 25 46.5 37ZM65.5 36.5C65.6667 34.5 67.8924 28.5 74.5 31C73.5 34.5 71.5 37.5 65.5 36.5ZM55.5 47.5C57.8333 45.8333 63.4 44.2 67 51C64.3466 52.6667 58.3318 54.3 55.5 47.5Z" fill="#147278"/>
<path d="M99.7964 96.978C92.6894 96.978 87.4109 91.4925 87.4109 84.558V84.489C87.4109 77.6235 92.5859 72 100.003 72C104.523 72 107.317 73.518 109.525 75.726L106.144 79.6245C104.247 77.934 102.418 76.899 99.9689 76.899C95.8979 76.899 92.9654 80.28 92.9654 84.42V84.489C92.9654 88.629 95.8289 92.079 99.9689 92.079C102.729 92.079 104.419 91.0095 106.317 89.25L109.698 92.6655C107.214 95.322 104.488 96.978 99.7964 96.978Z" fill="#147278"/>
<path d="M58.0435 96.5641V72.4141H67.462C75.052 72.4141 80.296 77.6236 80.296 84.4201V84.4891C80.296 91.2856 75.052 96.5641 67.462 96.5641H58.0435ZM67.462 77.2096H63.3565V91.7686H67.462C71.7745 91.7686 74.7415 88.8361 74.7415 84.5581V84.4891C74.7415 80.2111 71.7745 77.2096 67.462 77.2096Z" fill="#147278"/>
<path d="M29.6619 96.5641V72.4141H40.7019C43.7724 72.4141 46.1184 73.2421 47.7399 74.8636C49.1199 76.2436 49.8099 78.0721 49.8099 80.3836V80.4526C49.8099 84.3511 47.7054 86.8006 44.6349 87.9391L50.5344 96.5641H44.3244L39.1494 88.8361H34.9749V96.5641H29.6619ZM34.9749 84.1441H40.3569C42.9789 84.1441 44.4279 82.7986 44.4279 80.7286V80.6596C44.4279 78.3481 42.8754 77.2096 40.2534 77.2096H34.9749V84.1441Z" fill="#147278"/>
<path d="M0 96.5641V72.4141H5.313V81.9706H15.111V72.4141H20.424V96.5641H15.111V86.8696H5.313V96.5641H0Z" fill="#147278"/>
<path d="M107.07 108V106.344L105.456 103.8H106.536L107.538 105.486L108.558 103.8H109.608L107.994 106.326V108H107.07Z" fill="#147278"/>
<path d="M102.795 108V104.652H101.517V103.8H104.997V104.652H103.719V108H102.795Z" fill="#147278"/>
<path d="M99.6638 108V103.8H100.588V108H99.6638Z" fill="#147278"/>
<path d="M94.7015 108V103.8H95.5535L97.5215 106.386V103.8H98.4335V108H97.6475L95.6135 105.33V108H94.7015Z" fill="#147278"/>
<path d="M91.7384 108.066C90.6104 108.066 89.9204 107.442 89.9204 106.2V103.8H90.8444V106.176C90.8444 106.866 91.1804 107.214 91.7504 107.214C92.3204 107.214 92.6564 106.878 92.6564 106.206V103.8H93.5804V106.17C93.5804 107.442 92.8664 108.066 91.7384 108.066Z" fill="#147278"/>
<path d="M84.5974 108V103.8H85.5934L86.6974 105.576L87.8014 103.8H88.7974V108H87.8794V105.258L86.6974 107.052H86.6734L85.5034 105.276V108H84.5974Z" fill="#147278"/>
<path d="M79.2084 108V103.8H80.2044L81.3084 105.576L82.4124 103.8H83.4084V108H82.4904V105.258L81.3084 107.052H81.2844L80.1144 105.276V108H79.2084Z" fill="#147278"/>
<path d="M75.9707 108.072C74.6747 108.072 73.7448 107.106 73.7448 105.912V105.9C73.7448 104.706 74.6867 103.728 75.9827 103.728C77.2787 103.728 78.2087 104.694 78.2087 105.888V105.9C78.2087 107.094 77.2667 108.072 75.9707 108.072ZM75.9827 107.22C76.7267 107.22 77.2428 106.632 77.2428 105.912V105.9C77.2428 105.18 76.7147 104.58 75.9707 104.58C75.2267 104.58 74.7107 105.168 74.7107 105.888V105.9C74.7107 106.62 75.2387 107.22 75.9827 107.22Z" fill="#147278"/>
<path d="M71.4062 108.072C70.1702 108.072 69.2522 107.118 69.2522 105.912V105.9C69.2522 104.706 70.1522 103.728 71.4422 103.728C72.2282 103.728 72.7142 103.992 73.0982 104.376L72.5102 105.054C72.1802 104.76 71.8622 104.58 71.4362 104.58C70.7282 104.58 70.2182 105.168 70.2182 105.888V105.9C70.2182 106.62 70.7162 107.22 71.4362 107.22C71.9162 107.22 72.2102 107.034 72.5402 106.728L73.1282 107.322C72.6962 107.784 72.2222 108.072 71.4062 108.072Z" fill="#147278"/>
<path d="M62.9435 108V103.8H64.8635C65.3975 103.8 65.8055 103.944 66.0875 104.226C66.3275 104.466 66.4475 104.784 66.4475 105.186V105.198C66.4475 105.876 66.0815 106.302 65.5475 106.5L66.5735 108H65.4935L64.5935 106.656H63.8675V108H62.9435ZM63.8675 105.84H64.8035C65.2595 105.84 65.5115 105.606 65.5115 105.246V105.234C65.5115 104.832 65.2415 104.634 64.7855 104.634H63.8675V105.84Z" fill="#147278"/>
<path d="M58.7439 108V103.8H61.9119V104.622H59.6619V105.474H61.6419V106.296H59.6619V107.178H61.9419V108H58.7439Z" fill="#147278"/>
<path d="M55.6513 108V104.652H54.3733V103.8H57.8533V104.652H56.5753V108H55.6513Z" fill="#147278"/>
<path d="M51.5807 108V104.652H50.3027V103.8H53.7827V104.652H52.5047V108H51.5807Z" fill="#147278"/>
<path d="M46.4031 108V103.8H49.5711V104.622H47.3211V105.474H49.3011V106.296H47.3211V107.178H49.6011V108H46.4031Z" fill="#147278"/>
<path d="M41.8931 108V103.8H43.8431C44.3291 103.8 44.6951 103.926 44.9411 104.172C45.1331 104.364 45.2291 104.604 45.2291 104.886V104.898C45.2291 105.366 44.9771 105.648 44.6771 105.804C45.1631 105.99 45.4631 106.278 45.4631 106.836V106.848C45.4631 107.616 44.8391 108 43.8911 108H41.8931ZM44.3111 105.054V105.042C44.3111 104.76 44.0951 104.61 43.7051 104.61H42.7931V105.498H43.6451C44.0531 105.498 44.3111 105.366 44.3111 105.054ZM44.5451 106.734V106.722C44.5451 106.44 44.3411 106.266 43.8611 106.266H42.7931V107.19H43.8911C44.2991 107.19 44.5451 107.046 44.5451 106.734Z" fill="#147278"/>
<path d="M34.634 108L36.434 103.77H37.286L39.086 108H38.12L37.736 107.058H35.96L35.576 108H34.634ZM36.29 106.242H37.406L36.848 104.88L36.29 106.242Z" fill="#147278"/>
<path d="M30.1521 108.072C28.8441 108.072 27.9441 107.16 27.9441 105.912V105.9C27.9441 104.706 28.8741 103.728 30.1461 103.728C30.8961 103.728 31.3641 103.932 31.7961 104.304L31.2141 105.006C30.8961 104.736 30.5961 104.58 30.1161 104.58C29.4441 104.58 28.9101 105.174 28.9101 105.888V105.9C28.9101 106.668 29.4381 107.232 30.1821 107.232C30.5241 107.232 30.8181 107.148 31.0521 106.98V106.38H30.1221V105.582H31.9461V107.406C31.5141 107.772 30.9201 108.072 30.1521 108.072Z" fill="#147278"/>
<path d="M23.21 108V103.8H24.062L26.03 106.386V103.8H26.942V108H26.156L24.122 105.33V108H23.21Z" fill="#147278"/>
<path d="M21.0563 108V103.8H21.9803V108H21.0563Z" fill="#147278"/>
<path d="M16.1409 108V103.8H17.7789C19.0989 103.8 20.0109 104.706 20.0109 105.888V105.9C20.0109 107.082 19.0989 108 17.7789 108H16.1409ZM17.7789 104.634H17.0649V107.166H17.7789C18.5289 107.166 19.0449 106.656 19.0449 105.912V105.9C19.0449 105.156 18.5289 104.634 17.7789 104.634Z" fill="#147278"/>
<path d="M12.2461 108V103.8H13.1701V107.16H15.2641V108H12.2461Z" fill="#147278"/>
<path d="M10.0924 108V103.8H11.0164V108H10.0924Z" fill="#147278"/>
<path d="M7.08729 108.066C5.95929 108.066 5.26929 107.442 5.26929 106.2V103.8H6.19329V106.176C6.19329 106.866 6.52929 107.214 7.09929 107.214C7.66929 107.214 8.00529 106.878 8.00529 106.206V103.8H8.92929V106.17C8.92929 107.442 8.21529 108.066 7.08729 108.066Z" fill="#147278"/>
<path d="M0.825195 108V103.8H2.7752C3.2612 103.8 3.6272 103.926 3.8732 104.172C4.0652 104.364 4.1612 104.604 4.1612 104.886V104.898C4.1612 105.366 3.9092 105.648 3.6092 105.804C4.0952 105.99 4.3952 106.278 4.3952 106.836V106.848C4.3952 107.616 3.7712 108 2.8232 108H0.825195ZM3.2432 105.054V105.042C3.2432 104.76 3.0272 104.61 2.6372 104.61H1.7252V105.498H2.5772C2.9852 105.498 3.2432 105.366 3.2432 105.054ZM3.4772 106.734V106.722C3.4772 106.44 3.2732 106.266 2.7932 106.266H1.7252V107.19H2.8232C3.2312 107.19 3.4772 107.046 3.4772 106.734Z" fill="#147278"/>
<path d="M65.5 36.5C65.8334 33.8333 68 28.5 74.5 31C74 33.5 71.5 38.1 65.5 36.5Z" fill="#A1A750"/>
<path d="M55.5 47.5C56.5 50.3333 60.2 55 67 51C65.8334 48.1667 61.9 43.5 55.5 47.5Z" fill="#A1A750"/>
<path d="M46.5 37C42.1667 37.3333 33.9 34.5 35.5 20.5C40.5 21 49.7 25 46.5 37Z" fill="#A1A750"/>
<path d="M58 22.5C56.5 18.8333 55.7 11 64.5 9C66.1667 12.6667 67 21 58 22.5Z" fill="#A1A750"/>
</svg>
